<?xml version="1.0" encoding="utf-8"?>
<!-- Generator: Adobe Illustrator 21.1.0, SVG Export Plug-In . SVG Version: 6.00 Build 0)  -->
<svg version="1.1" id="Layer_1" xmlns="http://www.w3.org/2000/svg" xmlns:xlink="http://www.w3.org/1999/xlink" x="0px" y="0px"
	 viewBox="0 0 63 63" style="enable-background:new 0 0 63 63;" xml:space="preserve">
<style type="text/css">
	.st0{fill:#DB0D15;}
</style>
<g>
	<g>
		<path class="st0" d="M52.847,52.795h-1.096c-0.21,0-0.304-0.284-0.139-0.426l0.314-0.273c0.268-0.232,0.603-0.359,0.948-0.359
			h1.097c0.211,0,0.305,0.284,0.14,0.427l-0.314,0.272C53.528,52.669,53.193,52.795,52.847,52.795"/>
		<path class="st0" d="M54.282,51.254l-1.096,0.076c-0.207,0.014-0.321-0.263-0.169-0.415l0.297-0.294
			c0.251-0.251,0.575-0.399,0.919-0.422l1.094-0.077c0.21-0.015,0.323,0.263,0.169,0.414l-0.295,0.294
			C54.951,51.081,54.627,51.23,54.282,51.254"/>
		<path class="st0" d="M55.606,49.618l-1.088,0.153c-0.207,0.03-0.339-0.24-0.197-0.402l0.273-0.313
			c0.234-0.267,0.547-0.439,0.888-0.486l1.087-0.155c0.209-0.029,0.339,0.239,0.198,0.401l-0.273,0.315
			C56.26,49.399,55.947,49.57,55.606,49.618"/>
		<path class="st0" d="M56.812,47.895l-1.074,0.225c-0.205,0.045-0.355-0.213-0.224-0.386l0.251-0.332
			c0.214-0.283,0.515-0.476,0.852-0.548l1.073-0.226c0.205-0.044,0.355,0.214,0.225,0.387l-0.252,0.332
			C57.448,47.627,57.147,47.82,56.812,47.895"/>
		<path class="st0" d="M57.892,46.088l-1.053,0.303c-0.203,0.057-0.371-0.19-0.253-0.372l0.229-0.348
			c0.193-0.297,0.481-0.51,0.811-0.606l1.055-0.301c0.203-0.059,0.371,0.188,0.253,0.37l-0.229,0.349
			C58.511,45.779,58.224,45.994,57.892,46.088"/>
		<path class="st0" d="M58.846,44.211l-1.029,0.374c-0.198,0.073-0.382-0.162-0.277-0.351l0.202-0.363
			c0.173-0.31,0.443-0.544,0.769-0.661l1.03-0.374c0.198-0.073,0.382,0.163,0.278,0.351l-0.204,0.364
			C59.443,43.862,59.171,44.095,58.846,44.211"/>
		<path class="st0" d="M59.667,42.273l-1.003,0.448c-0.191,0.085-0.392-0.137-0.301-0.333l0.178-0.375
			c0.15-0.322,0.405-0.574,0.72-0.714l1.002-0.446c0.192-0.085,0.393,0.137,0.301,0.332l-0.178,0.378
			C60.235,41.882,59.981,42.133,59.667,42.273"/>
		<path class="st0" d="M60.351,40.284l-0.97,0.514c-0.185,0.099-0.401-0.109-0.323-0.308l0.15-0.389
			c0.13-0.331,0.364-0.599,0.669-0.762l0.969-0.514c0.184-0.099,0.401,0.108,0.322,0.31l-0.149,0.388
			C60.89,39.854,60.655,40.123,60.351,40.284"/>
		<path class="st0" d="M60.894,38.251l-0.931,0.582c-0.178,0.11-0.407-0.082-0.344-0.288l0.123-0.397
			c0.106-0.339,0.321-0.625,0.615-0.807l0.929-0.58c0.179-0.112,0.408,0.079,0.344,0.286l-0.122,0.396
			C61.403,37.785,61.185,38.069,60.894,38.251"/>
		<path class="st0" d="M61.292,36.184l-0.888,0.644c-0.17,0.124-0.412-0.05-0.363-0.26l0.095-0.406
			c0.08-0.346,0.277-0.644,0.556-0.847l0.887-0.645c0.171-0.125,0.411,0.051,0.364,0.263l-0.096,0.405
			C61.768,35.684,61.571,35.982,61.292,36.184"/>
		<path class="st0" d="M61.547,34.097l-0.839,0.704c-0.163,0.135-0.416-0.023-0.381-0.237l0.065-0.409
			c0.057-0.352,0.23-0.662,0.495-0.884l0.841-0.705c0.162-0.135,0.415,0.023,0.38,0.236l-0.064,0.412
			C61.986,33.563,61.811,33.874,61.547,34.097"/>
		<path class="st0" d="M61.655,31.994l-0.789,0.762c-0.152,0.146-0.415,0.008-0.396-0.209l0.037-0.414
			c0.032-0.354,0.184-0.678,0.433-0.917l0.788-0.762c0.151-0.146,0.417-0.006,0.395,0.21l-0.037,0.414
			C62.057,31.431,61.904,31.755,61.655,31.994"/>
		<path class="st0" d="M61.616,29.89l-0.734,0.815c-0.142,0.157-0.414,0.036-0.409-0.18l0.006-0.417
			c0.008-0.354,0.137-0.687,0.368-0.945l0.734-0.815c0.14-0.156,0.415-0.035,0.409,0.183l-0.008,0.415
			C61.976,29.301,61.846,29.634,61.616,29.89"/>
		<path class="st0" d="M61.431,27.795l-0.675,0.863c-0.129,0.168-0.411,0.066-0.422-0.151l-0.022-0.417
			c-0.017-0.352,0.09-0.695,0.302-0.967l0.676-0.863c0.13-0.166,0.409-0.065,0.422,0.151l0.021,0.417
			C61.749,27.182,61.642,27.522,61.431,27.795"/>
		<path class="st0" d="M61.1,25.717l-0.614,0.909c-0.118,0.175-0.406,0.093-0.432-0.122l-0.049-0.414
			c-0.043-0.353,0.038-0.701,0.231-0.986l0.615-0.907c0.118-0.176,0.405-0.094,0.431,0.121l0.05,0.414
			C61.375,25.083,61.291,25.43,61.1,25.717"/>
		<path class="st0" d="M60.623,23.668l-0.547,0.949c-0.105,0.182-0.399,0.12-0.439-0.092l-0.079-0.409
			c-0.066-0.347-0.008-0.701,0.165-0.999l0.548-0.949c0.104-0.183,0.398-0.122,0.438,0.092l0.079,0.408
			C60.853,23.014,60.794,23.368,60.623,23.668"/>
		<path class="st0" d="M60.006,21.655l-0.481,0.987c-0.091,0.187-0.389,0.147-0.442-0.062l-0.107-0.402
			c-0.092-0.342-0.06-0.699,0.091-1.009l0.481-0.986c0.091-0.188,0.39-0.146,0.444,0.061l0.107,0.403
			C60.19,20.988,60.156,21.346,60.006,21.655"/>
		<path class="st0" d="M59.25,19.692l-0.411,1.017c-0.079,0.194-0.377,0.174-0.446-0.032l-0.136-0.393
			c-0.116-0.335-0.108-0.693,0.021-1.013l0.411-1.017c0.08-0.195,0.379-0.175,0.446,0.03l0.136,0.394
			C59.387,19.015,59.378,19.372,59.25,19.692"/>
		<path class="st0" d="M58.358,17.784l-0.341,1.044c-0.063,0.199-0.362,0.201-0.447,0.002l-0.16-0.384
			c-0.138-0.327-0.155-0.685-0.049-1.011l0.338-1.044c0.065-0.199,0.364-0.201,0.448,0l0.163,0.382
			C58.449,17.101,58.464,17.457,58.358,17.784"/>
		<path class="st0" d="M57.335,15.947l-0.266,1.063c-0.05,0.206-0.349,0.227-0.446,0.033l-0.19-0.373
			c-0.16-0.316-0.2-0.67-0.119-1.005l0.266-1.064c0.051-0.204,0.35-0.225,0.448-0.032l0.187,0.371
			C57.376,15.257,57.418,15.613,57.335,15.947"/>
		<path class="st0" d="M56.187,14.183l-0.191,1.079c-0.036,0.207-0.333,0.25-0.444,0.065l-0.213-0.358
			c-0.182-0.305-0.249-0.657-0.188-0.996l0.19-1.08c0.037-0.207,0.332-0.249,0.444-0.065l0.213,0.358
			C56.178,13.492,56.246,13.843,56.187,14.183"/>
		<path class="st0" d="M54.918,12.504l-0.115,1.09c-0.021,0.209-0.313,0.272-0.437,0.093l-0.238-0.34
			c-0.203-0.292-0.295-0.637-0.259-0.979l0.115-1.09c0.022-0.21,0.315-0.272,0.436-0.095l0.239,0.342
			C54.864,11.816,54.954,12.159,54.918,12.504"/>
		<path class="st0" d="M53.535,10.916l-0.037,1.096c-0.007,0.21-0.295,0.293-0.431,0.125l-0.26-0.324
			c-0.225-0.278-0.339-0.615-0.326-0.959l0.038-1.097c0.008-0.21,0.294-0.293,0.431-0.124l0.261,0.324
			C53.433,10.233,53.549,10.572,53.535,10.916"/>
		<path class="st0" d="M52.046,9.429l0.037,1.097c0.008,0.211-0.273,0.312-0.42,0.155l-0.283-0.305
			c-0.242-0.26-0.38-0.591-0.393-0.935l-0.038-1.097c-0.005-0.21,0.275-0.313,0.424-0.155l0.281,0.306
			C51.894,8.756,52.033,9.086,52.046,9.429"/>
		<path class="st0" d="M50.456,8.052l0.114,1.09c0.022,0.209-0.25,0.333-0.408,0.184l-0.304-0.285
			c-0.259-0.241-0.419-0.563-0.456-0.905l-0.114-1.09c-0.022-0.209,0.251-0.331,0.408-0.184l0.304,0.286
			C50.259,7.389,50.42,7.709,50.456,8.052"/>
		<path class="st0" d="M48.774,6.787l0.19,1.08C49,8.075,48.736,8.215,48.567,8.079l-0.322-0.263
			c-0.275-0.225-0.458-0.531-0.518-0.871l-0.19-1.079c-0.037-0.209,0.227-0.349,0.394-0.213l0.324,0.263
			C48.53,6.14,48.713,6.447,48.774,6.787"/>
		<path class="st0" d="M47.006,5.643l0.266,1.064c0.051,0.204-0.201,0.364-0.38,0.238l-0.339-0.24
			c-0.29-0.204-0.495-0.498-0.577-0.831l-0.266-1.065c-0.05-0.205,0.203-0.363,0.381-0.239l0.339,0.239
			C46.718,5.015,46.924,5.31,47.006,5.643"/>
		<path class="st0" d="M45.164,4.624l0.339,1.043c0.065,0.2-0.177,0.377-0.362,0.265l-0.355-0.216
			c-0.304-0.184-0.527-0.461-0.634-0.79l-0.339-1.043c-0.065-0.2,0.176-0.376,0.361-0.264l0.356,0.216
			C44.834,4.017,45.058,4.296,45.164,4.624"/>
		<path class="st0" d="M43.255,3.738l0.412,1.016c0.079,0.194-0.151,0.388-0.344,0.289l-0.368-0.19
			c-0.317-0.162-0.559-0.425-0.688-0.744l-0.411-1.017c-0.078-0.195,0.149-0.388,0.341-0.29l0.372,0.19
			C42.884,3.155,43.126,3.418,43.255,3.738"/>
		<path class="st0" d="M41.289,2.986l0.481,0.985c0.093,0.189-0.122,0.396-0.32,0.312l-0.384-0.165
			c-0.326-0.139-0.587-0.384-0.738-0.694l-0.481-0.986c-0.091-0.187,0.123-0.397,0.322-0.312l0.382,0.165
			C40.878,2.431,41.139,2.676,41.289,2.986"/>
		<path class="st0" d="M39.275,2.372l0.549,0.949c0.105,0.183-0.094,0.406-0.299,0.334l-0.393-0.137
			c-0.336-0.116-0.613-0.342-0.785-0.64L37.799,1.93c-0.107-0.184,0.094-0.406,0.298-0.335l0.392,0.137
			C38.826,1.848,39.103,2.073,39.275,2.372"/>
		<path class="st0" d="M37.223,1.9l0.615,0.909c0.118,0.177-0.067,0.412-0.275,0.355l-0.401-0.108
			c-0.344-0.094-0.635-0.3-0.828-0.584l-0.613-0.91c-0.117-0.173,0.065-0.41,0.275-0.355l0.402,0.11
			C36.739,1.41,37.032,1.615,37.223,1.9"/>
		<path class="st0" d="M35.144,1.573l0.676,0.863c0.129,0.166-0.037,0.415-0.25,0.372l-0.408-0.079
			c-0.35-0.068-0.654-0.254-0.866-0.526l-0.674-0.864c-0.131-0.164,0.036-0.412,0.249-0.372l0.407,0.082
			C34.627,1.116,34.932,1.301,35.144,1.573"/>
		<path class="st0" d="M33.048,1.392l0.733,0.815c0.141,0.157-0.008,0.416-0.224,0.388l-0.411-0.05
			c-0.355-0.046-0.672-0.208-0.903-0.465l-0.735-0.815c-0.138-0.157,0.009-0.414,0.224-0.388l0.413,0.052
			C32.499,0.971,32.816,1.136,33.048,1.392"/>
		<path class="st0" d="M30.943,1.358l0.79,0.763c0.149,0.145,0.02,0.414-0.197,0.402l-0.415-0.024
			C30.767,2.48,30.439,2.339,30.191,2.1l-0.79-0.762c-0.152-0.145-0.022-0.415,0.194-0.404l0.415,0.024
			C30.368,0.978,30.695,1.118,30.943,1.358"/>
		<path class="st0" d="M28.841,1.47l0.839,0.707c0.162,0.133,0.05,0.411-0.166,0.414l-0.416,0.006
			c-0.356,0.007-0.693-0.111-0.956-0.333l-0.841-0.704c-0.162-0.136-0.05-0.413,0.166-0.415l0.417-0.006
			C28.24,1.132,28.577,1.25,28.841,1.47"/>
		<path class="st0" d="M26.753,1.73l0.888,0.643c0.169,0.123,0.078,0.408-0.137,0.427l-0.416,0.035
			c-0.353,0.031-0.7-0.064-0.977-0.266l-0.887-0.644c-0.17-0.124-0.079-0.409,0.137-0.428l0.414-0.034
			C26.128,1.432,26.472,1.525,26.753,1.73"/>
		<path class="st0" d="M24.685,2.132l0.931,0.58c0.177,0.113,0.107,0.402-0.108,0.437l-0.412,0.064
			c-0.35,0.055-0.701-0.014-0.994-0.198l-0.93-0.58c-0.179-0.112-0.106-0.402,0.106-0.436l0.412-0.063
			C24.042,1.879,24.393,1.949,24.685,2.132"/>
		<path class="st0" d="M22.654,2.68l0.969,0.513c0.185,0.102,0.135,0.395-0.077,0.443l-0.406,0.092
			c-0.347,0.079-0.702,0.034-1.004-0.129l-0.971-0.513c-0.185-0.099-0.133-0.394,0.077-0.44l0.406-0.096
			C21.994,2.472,22.348,2.517,22.654,2.68"/>
		<path class="st0" d="M20.662,3.367l1.003,0.444c0.192,0.088,0.163,0.385-0.044,0.448l-0.4,0.121
			c-0.339,0.102-0.697,0.083-1.011-0.057l-1.002-0.446c-0.193-0.086-0.162-0.383,0.045-0.447l0.399-0.12
			C19.991,3.207,20.348,3.226,20.662,3.367"/>
		<path class="st0" d="M18.726,4.189l1.031,0.375c0.197,0.073,0.189,0.371-0.014,0.448l-0.39,0.149
			c-0.33,0.127-0.69,0.132-1.013,0.013L17.31,4.8c-0.196-0.072-0.187-0.372,0.014-0.448l0.39-0.149
			C18.044,4.077,18.403,4.073,18.726,4.189"/>
		<path class="st0" d="M16.852,5.147l1.054,0.303c0.201,0.057,0.214,0.357,0.017,0.448l-0.378,0.173
			c-0.323,0.149-0.68,0.179-1.009,0.085L15.48,5.855c-0.201-0.059-0.213-0.358-0.016-0.448l0.378-0.174
			C16.164,5.082,16.521,5.053,16.852,5.147"/>
		<path class="st0" d="M15.048,6.233l1.073,0.229c0.206,0.044,0.239,0.34,0.048,0.445l-0.364,0.201
			c-0.311,0.171-0.664,0.225-1.002,0.154l-1.072-0.229c-0.206-0.043-0.239-0.34-0.05-0.445l0.366-0.201
			C14.359,6.216,14.712,6.162,15.048,6.233"/>
		<path class="st0" d="M13.325,7.443l1.086,0.152c0.209,0.03,0.262,0.324,0.079,0.441l-0.35,0.226
			c-0.298,0.193-0.647,0.272-0.987,0.223l-1.088-0.152c-0.208-0.03-0.259-0.324-0.079-0.441l0.35-0.227
			C12.637,7.473,12.984,7.395,13.325,7.443"/>
		<path class="st0" d="M11.691,8.769l1.094,0.076c0.21,0.013,0.284,0.304,0.109,0.434L12.56,9.527
			c-0.282,0.214-0.625,0.316-0.969,0.293l-1.094-0.076c-0.211-0.015-0.284-0.305-0.11-0.435l0.333-0.251
			C11.003,8.847,11.346,8.744,11.691,8.769"/>
		<path class="st0" d="M10.153,10.203h1.097c0.209,0,0.304,0.285,0.139,0.428l-0.314,0.272c-0.268,0.232-0.602,0.359-0.948,0.359
			H9.031c-0.212,0-0.306-0.285-0.141-0.426l0.314-0.272C9.473,10.331,9.807,10.203,10.153,10.203"/>
		<path class="st0" d="M8.719,11.745l1.094-0.076c0.209-0.015,0.323,0.263,0.17,0.415l-0.298,0.293
			c-0.251,0.25-0.575,0.399-0.918,0.424l-1.095,0.077c-0.21,0.014-0.323-0.264-0.169-0.416l0.295-0.293
			C8.05,11.918,8.374,11.77,8.719,11.745"/>
		<path class="st0" d="M7.396,13.381l1.087-0.151c0.207-0.029,0.339,0.24,0.197,0.402l-0.274,0.313
			c-0.233,0.267-0.548,0.439-0.888,0.486l-1.086,0.154c-0.209,0.029-0.34-0.239-0.199-0.404l0.274-0.312
			C6.741,13.602,7.054,13.428,7.396,13.381"/>
		<path class="st0" d="M6.19,15.106l1.073-0.227c0.206-0.044,0.357,0.214,0.225,0.387l-0.251,0.332
			c-0.214,0.283-0.515,0.476-0.853,0.547l-1.072,0.228c-0.206,0.044-0.355-0.214-0.225-0.386l0.253-0.331
			C5.553,15.371,5.854,15.177,6.19,15.106"/>
		<path class="st0" d="M5.107,16.912l1.055-0.304c0.202-0.058,0.37,0.191,0.252,0.371l-0.229,0.349
			c-0.194,0.298-0.48,0.512-0.812,0.607l-1.054,0.301c-0.201,0.059-0.37-0.189-0.252-0.371l0.229-0.349
			C4.489,17.221,4.777,17.006,5.107,16.912"/>
		<path class="st0" d="M4.155,18.787l1.031-0.374c0.197-0.072,0.382,0.163,0.277,0.352l-0.203,0.364
			c-0.173,0.311-0.443,0.545-0.769,0.66l-1.03,0.376c-0.197,0.072-0.384-0.163-0.278-0.353l0.204-0.364
			C3.559,19.138,3.831,18.905,4.155,18.787"/>
		<path class="st0" d="M3.334,20.724l1.002-0.445c0.192-0.086,0.392,0.136,0.301,0.333L4.46,20.988
			c-0.151,0.322-0.405,0.573-0.72,0.713l-1.003,0.446c-0.192,0.084-0.393-0.137-0.299-0.332l0.176-0.378
			C2.764,21.117,3.019,20.866,3.334,20.724"/>
		<path class="st0" d="M2.65,22.715l0.97-0.514c0.185-0.098,0.402,0.109,0.324,0.31l-0.151,0.389c-0.128,0.33-0.364,0.6-0.668,0.761
			l-0.968,0.515c-0.186,0.099-0.402-0.107-0.323-0.309l0.148-0.389C2.112,23.147,2.347,22.878,2.65,22.715"/>
		<path class="st0" d="M2.108,24.749l0.93-0.581c0.178-0.111,0.407,0.081,0.344,0.286L3.26,24.852
			c-0.106,0.339-0.323,0.623-0.614,0.807l-0.932,0.58c-0.177,0.112-0.407-0.079-0.342-0.287l0.121-0.397
			C1.599,25.215,1.816,24.931,2.108,24.749"/>
		<path class="st0" d="M1.707,26.814l0.889-0.646c0.17-0.123,0.413,0.052,0.363,0.263l-0.095,0.405
			c-0.081,0.346-0.278,0.644-0.557,0.848l-0.886,0.644c-0.17,0.125-0.413-0.051-0.363-0.261l0.093-0.406
			C1.234,27.316,1.429,27.018,1.707,26.814"/>
		<path class="st0" d="M1.453,28.903l0.841-0.705c0.161-0.136,0.416,0.024,0.381,0.237l-0.066,0.411
			c-0.055,0.351-0.23,0.662-0.494,0.884l-0.841,0.704c-0.16,0.135-0.416-0.022-0.38-0.235l0.064-0.412
			C1.014,29.437,1.19,29.125,1.453,28.903"/>
		<path class="st0" d="M1.346,31.006l0.788-0.763c0.152-0.144,0.416-0.005,0.396,0.211l-0.036,0.414
			c-0.032,0.353-0.185,0.676-0.433,0.916l-0.79,0.762c-0.151,0.145-0.415,0.006-0.395-0.209l0.038-0.415
			C0.945,31.569,1.097,31.244,1.346,31.006"/>
		<path class="st0" d="M1.384,33.109l0.734-0.815c0.141-0.154,0.414-0.035,0.411,0.181l-0.01,0.417
			c-0.006,0.353-0.136,0.687-0.368,0.943l-0.734,0.815c-0.139,0.157-0.413,0.035-0.408-0.182l0.008-0.416
			C1.024,33.697,1.153,33.365,1.384,33.109"/>
		<path class="st0" d="M1.57,35.205l0.675-0.864c0.131-0.164,0.411-0.064,0.421,0.152l0.022,0.418
			c0.017,0.352-0.089,0.695-0.301,0.966L1.711,36.74c-0.129,0.165-0.411,0.064-0.422-0.152l-0.022-0.416
			C1.252,35.818,1.357,35.475,1.57,35.205"/>
		<path class="st0" d="M1.903,37.283l0.613-0.908c0.117-0.176,0.406-0.095,0.431,0.12l0.05,0.414
			c0.042,0.352-0.039,0.698-0.232,0.985L2.15,38.803c-0.117,0.176-0.406,0.093-0.431-0.122l-0.05-0.413
			C1.627,37.917,1.71,37.57,1.903,37.283"/>
		<path class="st0" d="M2.377,39.333l0.548-0.95c0.105-0.182,0.398-0.119,0.439,0.093l0.079,0.408c0.065,0.348,0.009,0.701-0.165,1
			l-0.548,0.95c-0.106,0.182-0.398,0.12-0.439-0.092l-0.078-0.408C2.148,39.985,2.206,39.631,2.377,39.333"/>
		<path class="st0" d="M2.995,41.345l0.481-0.987c0.092-0.187,0.387-0.146,0.443,0.062l0.106,0.403
			c0.093,0.342,0.059,0.697-0.092,1.009l-0.48,0.986c-0.091,0.188-0.39,0.147-0.445-0.062l-0.106-0.402
			C2.81,42.01,2.843,41.654,2.995,41.345"/>
		<path class="st0" d="M3.752,43.308l0.411-1.016c0.079-0.196,0.378-0.176,0.448,0.03l0.135,0.393
			c0.116,0.337,0.107,0.694-0.022,1.014l-0.411,1.016c-0.077,0.196-0.377,0.175-0.446-0.03L3.73,44.321
			C3.616,43.985,3.624,43.629,3.752,43.308"/>
		<path class="st0" d="M4.643,45.214l0.339-1.042c0.065-0.202,0.364-0.202,0.447-0.002l0.162,0.385
			c0.138,0.325,0.155,0.683,0.049,1.011l-0.339,1.043c-0.065,0.2-0.365,0.2-0.448,0.002l-0.162-0.385
			C4.554,45.898,4.537,45.542,4.643,45.214"/>
		<path class="st0" d="M5.665,47.054l0.266-1.064c0.05-0.205,0.351-0.227,0.447-0.032l0.19,0.37c0.158,0.318,0.2,0.672,0.118,1.007
			l-0.267,1.065c-0.05,0.203-0.348,0.224-0.447,0.031l-0.187-0.371C5.625,47.743,5.583,47.387,5.665,47.054"/>
		<path class="st0" d="M6.813,48.816l0.191-1.079c0.037-0.207,0.332-0.25,0.444-0.064l0.214,0.358
			c0.182,0.305,0.247,0.657,0.188,0.994l-0.19,1.08c-0.037,0.207-0.333,0.25-0.444,0.064l-0.213-0.358
			C6.822,49.507,6.755,49.157,6.813,48.816"/>
		<path class="st0" d="M8.081,50.496l0.116-1.09c0.021-0.209,0.313-0.272,0.438-0.095l0.238,0.341
			c0.204,0.292,0.294,0.637,0.258,0.979l-0.116,1.091c-0.021,0.208-0.314,0.272-0.437,0.094L8.34,51.475
			C8.137,51.185,8.047,50.838,8.081,50.496"/>
		<path class="st0" d="M9.465,52.084l0.039-1.096c0.007-0.21,0.294-0.294,0.429-0.125l0.263,0.325
			c0.223,0.276,0.337,0.614,0.324,0.958l-0.038,1.097c-0.006,0.21-0.294,0.293-0.43,0.124l-0.261-0.324
			C9.568,52.765,9.454,52.428,9.465,52.084"/>
		<path class="st0" d="M10.955,53.571l-0.038-1.097c-0.005-0.211,0.274-0.312,0.42-0.154l0.284,0.304
			c0.241,0.26,0.379,0.591,0.392,0.935l0.037,1.095c0.007,0.212-0.274,0.314-0.421,0.154l-0.281-0.304
			C11.106,54.242,10.966,53.913,10.955,53.571"/>
		<path class="st0" d="M12.546,54.948l-0.115-1.091c-0.021-0.207,0.25-0.332,0.408-0.183l0.305,0.285
			c0.26,0.241,0.419,0.561,0.456,0.905l0.116,1.09c0.021,0.209-0.252,0.33-0.408,0.184l-0.305-0.286
			C12.741,55.611,12.581,55.291,12.546,54.948"/>
		<path class="st0" d="M14.228,56.213l-0.191-1.079c-0.035-0.207,0.227-0.349,0.396-0.212l0.324,0.262
			c0.274,0.225,0.456,0.532,0.515,0.871l0.191,1.079c0.036,0.207-0.227,0.347-0.394,0.212l-0.325-0.263
			C14.471,56.859,14.287,56.554,14.228,56.213"/>
		<path class="st0" d="M15.995,57.358l-0.265-1.065c-0.052-0.204,0.203-0.363,0.38-0.238l0.34,0.24
			c0.29,0.204,0.494,0.498,0.576,0.832l0.266,1.064c0.051,0.205-0.203,0.363-0.38,0.237l-0.341-0.237
			C16.282,57.985,16.077,57.692,15.995,57.358"/>
		<path class="st0" d="M17.837,58.376l-0.339-1.043c-0.065-0.199,0.175-0.377,0.361-0.264l0.357,0.215
			c0.303,0.184,0.527,0.462,0.634,0.789l0.339,1.045c0.065,0.198-0.177,0.375-0.364,0.265l-0.355-0.217
			C18.167,58.982,17.943,58.703,17.837,58.376"/>
		<path class="st0" d="M19.746,59.262l-0.411-1.016c-0.079-0.195,0.15-0.388,0.342-0.29l0.369,0.19
			c0.318,0.162,0.561,0.425,0.688,0.744l0.41,1.016c0.08,0.195-0.148,0.388-0.341,0.29l-0.371-0.19
			C20.117,59.845,19.875,59.582,19.746,59.262"/>
		<path class="st0" d="M21.712,60.014l-0.48-0.985c-0.093-0.189,0.12-0.398,0.321-0.312l0.382,0.164
			c0.327,0.14,0.587,0.385,0.738,0.695l0.48,0.985c0.091,0.188-0.122,0.396-0.321,0.311l-0.383-0.164
			C22.123,60.568,21.862,60.324,21.712,60.014"/>
		<path class="st0" d="M23.726,60.627l-0.548-0.95c-0.106-0.183,0.092-0.405,0.298-0.333l0.393,0.136
			c0.337,0.117,0.613,0.343,0.785,0.641l0.548,0.949c0.106,0.184-0.093,0.406-0.299,0.334l-0.392-0.136
			C24.174,61.152,23.898,60.925,23.726,60.627"/>
		<path class="st0" d="M25.777,61.097l-0.614-0.907c-0.117-0.176,0.066-0.411,0.276-0.355l0.4,0.109
			c0.344,0.093,0.636,0.3,0.829,0.586l0.613,0.909c0.118,0.173-0.065,0.41-0.274,0.354l-0.402-0.11
			C26.26,61.59,25.969,61.384,25.777,61.097"/>
		<path class="st0" d="M27.856,61.425l-0.674-0.862c-0.131-0.166,0.036-0.415,0.248-0.373l0.408,0.08
			c0.349,0.068,0.655,0.254,0.867,0.525l0.675,0.864c0.129,0.165-0.037,0.413-0.25,0.373l-0.408-0.082
			C28.373,61.883,28.069,61.699,27.856,61.425"/>
		<path class="st0" d="M29.953,61.608l-0.733-0.815c-0.141-0.157,0.008-0.416,0.223-0.389l0.412,0.051
			c0.353,0.043,0.67,0.208,0.902,0.465l0.735,0.814c0.139,0.157-0.009,0.416-0.224,0.389l-0.413-0.052
			C30.502,62.027,30.184,61.864,29.953,61.608"/>
		<path class="st0" d="M32.058,61.643l-0.789-0.763c-0.151-0.145-0.023-0.414,0.196-0.402l0.414,0.024
			c0.355,0.018,0.684,0.159,0.932,0.398l0.788,0.763c0.152,0.145,0.023,0.414-0.195,0.402l-0.415-0.023
			C32.633,62.022,32.306,61.88,32.058,61.643"/>
		<path class="st0" d="M34.16,61.53l-0.84-0.707c-0.161-0.136-0.05-0.411,0.166-0.414l0.416-0.006
			c0.356-0.006,0.693,0.111,0.957,0.334l0.842,0.704c0.16,0.133,0.05,0.413-0.168,0.415l-0.416,0.005
			C34.76,61.868,34.423,61.75,34.16,61.53"/>
		<path class="st0" d="M36.25,61.271l-0.889-0.644c-0.169-0.124-0.077-0.409,0.138-0.427l0.417-0.035
			c0.351-0.031,0.697,0.063,0.976,0.266l0.889,0.644c0.169,0.124,0.078,0.408-0.138,0.425l-0.415,0.037
			C36.873,61.567,36.528,61.473,36.25,61.271"/>
		<path class="st0" d="M38.315,60.868l-0.929-0.583c-0.179-0.109-0.108-0.4,0.106-0.433l0.412-0.063
			c0.35-0.055,0.701,0.014,0.995,0.198l0.93,0.58c0.179,0.111,0.106,0.402-0.107,0.436l-0.412,0.063
			C38.958,61.12,38.609,61.049,38.315,60.868"/>
		<path class="st0" d="M40.349,60.32l-0.969-0.513c-0.186-0.102-0.134-0.394,0.076-0.442l0.405-0.092
			c0.348-0.079,0.702-0.034,1.008,0.127l0.967,0.515c0.186,0.098,0.136,0.393-0.076,0.44l-0.407,0.092
			C41.007,60.527,40.652,60.483,40.349,60.32"/>
		<path class="st0" d="M42.338,59.634l-1.002-0.447c-0.192-0.085-0.163-0.381,0.044-0.445l0.399-0.12
			c0.339-0.102,0.696-0.083,1.011,0.057l1.002,0.446c0.193,0.086,0.162,0.383-0.044,0.447l-0.398,0.12
			C43.01,59.793,42.652,59.774,42.338,59.634"/>
		<path class="st0" d="M44.275,58.81l-1.031-0.377c-0.198-0.071-0.188-0.369,0.012-0.447l0.391-0.148
			c0.333-0.125,0.69-0.131,1.013-0.012l1.03,0.373c0.198,0.072,0.189,0.372-0.012,0.449l-0.391,0.148
			C44.956,58.923,44.599,58.927,44.275,58.81"/>
		<path class="st0" d="M46.15,57.852l-1.055-0.303c-0.201-0.057-0.213-0.357-0.018-0.449l0.379-0.173
			c0.323-0.15,0.679-0.178,1.01-0.084l1.055,0.303c0.201,0.058,0.213,0.357,0.017,0.448l-0.379,0.174
			C46.837,57.919,46.481,57.947,46.15,57.852"/>
		<path class="st0" d="M47.952,56.766l-1.072-0.227c-0.206-0.044-0.238-0.34-0.048-0.446l0.364-0.2
			c0.311-0.171,0.665-0.226,1.002-0.153l1.072,0.227c0.206,0.044,0.238,0.34,0.049,0.446l-0.366,0.2
			C48.641,56.783,48.289,56.837,47.952,56.766"/>
		<path class="st0" d="M49.676,55.558l-1.087-0.154c-0.21-0.028-0.261-0.323-0.079-0.44l0.35-0.226
			c0.298-0.193,0.648-0.272,0.987-0.225l1.087,0.153c0.207,0.03,0.26,0.324,0.08,0.44l-0.351,0.227
			C50.364,55.527,50.016,55.605,49.676,55.558"/>
		<path class="st0" d="M51.309,54.232l-1.093-0.077c-0.209-0.015-0.284-0.303-0.11-0.434l0.334-0.25
			c0.282-0.212,0.626-0.316,0.969-0.291l1.094,0.075c0.211,0.016,0.284,0.305,0.11,0.435l-0.335,0.251
			C51.996,54.153,51.653,54.255,51.309,54.232"/>
		<polyline class="st0" points="31.983,6.33 33.548,6.33 32.281,5.412 32.765,3.924 32.766,3.923 32.765,3.924 31.5,4.842 
			30.235,3.924 30.717,5.412 29.451,6.33 31.017,6.33 31.5,7.818 31.983,6.331 		"/>
		<polyline class="st0" points="22.315,8.062 23.761,7.463 22.238,7.099 22.238,7.099 22.116,5.539 22.117,5.538 22.116,5.538 
			21.299,6.872 19.778,6.507 19.778,6.507 20.793,7.698 19.975,9.031 21.422,8.432 22.438,9.621 22.315,8.062 		"/>
		<polygon class="st0" points="14.045,13.361 15.152,12.254 13.606,12.501 13.606,12.501 12.896,11.106 12.896,11.105 
			12.896,11.106 12.651,12.65 11.106,12.896 11.107,12.896 12.5,13.606 12.255,15.151 13.361,14.045 14.755,14.754 		"/>
		<polyline class="st0" points="8.432,21.422 9.031,19.976 7.697,20.795 7.698,20.795 6.508,19.779 6.507,19.778 6.507,19.778 
			6.872,21.298 5.54,22.117 7.099,22.24 7.463,23.761 8.062,22.315 9.621,22.437 8.432,21.422 		"/>
		<polygon class="st0" points="6.332,31.017 6.332,29.452 5.413,30.719 5.413,30.719 3.925,30.235 3.925,30.235 3.925,30.235 
			4.843,31.5 3.925,32.765 3.925,32.765 5.413,32.283 6.332,33.549 6.332,31.984 7.82,31.5 		"/>
		<polygon class="st0" points="8.063,40.686 7.464,39.239 7.1,40.763 7.1,40.762 5.54,40.884 5.539,40.884 5.54,40.884 
			6.873,41.701 6.509,43.222 7.699,42.207 9.032,43.024 8.433,41.578 9.622,40.562 		"/>
		<polyline class="st0" points="13.362,48.956 12.255,47.849 12.502,49.395 12.502,49.394 11.108,50.105 11.107,50.105 
			11.108,50.105 12.652,50.35 12.897,51.894 13.608,50.5 15.153,50.746 14.046,49.639 14.756,48.246 13.363,48.956 		"/>
		<polygon class="st0" points="21.424,54.568 19.977,53.969 20.797,55.303 20.796,55.303 19.78,56.493 19.779,56.493 19.78,56.493 
			21.3,56.128 22.118,57.461 22.241,55.902 23.763,55.537 22.316,54.938 22.439,53.378 		"/>
		<polygon class="st0" points="31.017,56.669 29.452,56.669 30.719,57.587 30.719,57.587 30.235,59.075 30.235,59.076 31.5,58.157 
			32.765,59.076 32.765,59.075 32.283,57.587 33.549,56.669 31.983,56.669 31.5,55.181 		"/>
		<polygon class="st0" points="40.687,54.937 39.241,55.536 40.764,55.9 40.763,55.9 40.885,57.46 40.885,57.461 40.885,57.46 
			41.703,56.128 43.223,56.492 42.208,55.302 43.026,53.969 41.579,54.567 40.564,53.378 		"/>
		<polyline class="st0" points="48.957,49.638 47.85,50.745 49.396,50.498 49.396,50.499 50.106,51.893 50.106,51.893 
			50.106,51.893 50.351,50.349 51.895,50.103 51.895,50.103 50.502,49.392 50.747,47.848 49.64,48.954 48.247,48.244 48.957,49.638 
					"/>
		<polyline class="st0" points="54.57,41.577 53.97,43.024 55.304,42.204 55.304,42.204 56.494,43.221 56.494,43.221 56.494,43.221 
			56.13,41.701 57.462,40.883 57.462,40.883 55.903,40.758 55.538,39.238 54.94,40.684 53.38,40.561 54.569,41.577 		"/>
		<polygon class="st0" points="56.67,31.982 56.67,33.547 57.589,32.28 57.589,32.28 59.077,32.764 59.077,32.764 59.077,32.764 
			58.158,31.499 59.077,30.233 57.589,30.716 56.67,29.45 56.67,31.016 55.182,31.499 		"/>
		<polyline class="st0" points="54.939,22.313 55.537,23.76 55.901,22.237 55.901,22.237 57.462,22.115 57.462,22.115 
			57.462,22.115 56.129,21.297 56.494,19.777 56.493,19.777 55.303,20.792 53.97,19.974 54.569,21.421 53.379,22.437 54.938,22.313 
					"/>
		<polyline class="st0" points="49.639,14.043 50.746,15.15 50.5,13.605 51.894,12.895 51.895,12.895 51.895,12.894 50.35,12.65 
			50.104,11.105 49.393,12.498 47.849,12.254 48.956,13.36 48.246,14.754 49.639,14.044 		"/>
		<polyline class="st0" points="41.579,8.431 43.025,9.03 42.205,7.696 42.206,7.696 43.222,6.507 43.223,6.506 43.222,6.506 
			41.702,6.871 40.884,5.538 40.76,7.097 39.239,7.462 40.686,8.061 40.563,9.62 41.578,8.431 		"/>
		<path class="st0" d="M31.502,50.79c-0.472,0-0.855,0.382-0.855,0.855c0,0.472,0.383,0.854,0.855,0.854
			c0.472,0,0.855-0.382,0.855-0.854C32.357,51.173,31.974,50.79,31.502,50.79"/>
		<path class="st0" d="M31.5,8.894C19.035,8.894,8.894,19.035,8.894,31.5S19.035,54.106,31.5,54.106
			c12.465,0,22.607-10.141,22.607-22.606S43.965,8.894,31.5,8.894 M31.5,53.6c-12.186,0-22.1-9.915-22.1-22.1
			c0-12.186,9.914-22.1,22.1-22.1c12.186,0,22.1,9.914,22.1,22.1C53.6,43.686,43.686,53.6,31.5,53.6"/>
		<path class="st0" d="M35.338,49.304c0.085-0.018,0.169-0.04,0.254-0.059c0.254-0.058,0.506-0.122,0.756-0.191
			c0.154-0.043,0.307-0.085,0.46-0.131c0.112-0.034,0.223-0.071,0.334-0.108c0.153-0.05,0.306-0.101,0.457-0.155
			c0.106-0.038,0.211-0.077,0.315-0.116c0.16-0.06,0.318-0.123,0.475-0.187c0.094-0.039,0.188-0.076,0.281-0.116
			c0.193-0.084,0.386-0.171,0.576-0.261c0.056-0.026,0.113-0.051,0.169-0.078c0.229-0.111,0.455-0.227,0.678-0.348
			c0.108-0.058,0.213-0.119,0.32-0.179c0.083-0.047,0.167-0.091,0.248-0.139c0.043-0.025,0.085-0.052,0.127-0.077
			c0.095-0.057,0.189-0.113,0.283-0.172c0.049-0.03,0.098-0.058,0.147-0.09c0.139-0.088,0.276-0.178,0.412-0.27
			c0.04-0.026,0.078-0.053,0.117-0.08c0.182-0.124,0.36-0.252,0.537-0.382c0.058-0.042,0.116-0.084,0.173-0.127
			c0.186-0.141,0.369-0.286,0.55-0.433c0.061-0.05,0.12-0.1,0.18-0.151c0.146-0.122,0.289-0.246,0.431-0.373
			c0.084-0.075,0.167-0.151,0.25-0.227c0.12-0.111,0.238-0.224,0.354-0.338c0.092-0.09,0.183-0.18,0.273-0.272
			c0.005-0.005,0.011-0.011,0.017-0.016c0.073-0.075,0.143-0.151,0.215-0.226c0.14-0.148,0.278-0.298,0.413-0.451
			c0.115-0.13,0.229-0.259,0.34-0.393c0.072-0.087,0.143-0.176,0.214-0.264c0.098-0.122,0.196-0.245,0.291-0.37
			c0.072-0.095,0.143-0.19,0.213-0.286c0.082-0.112,0.162-0.225,0.241-0.339c0.083-0.119,0.166-0.239,0.247-0.361
			c0.008-0.012,0.017-0.025,0.025-0.038c0.103-0.153,0.2-0.307,0.295-0.463c0.033-0.053,0.066-0.106,0.098-0.159
			c0.122-0.2,0.238-0.405,0.352-0.61c0.036-0.065,0.071-0.13,0.106-0.195c0.11-0.205,0.216-0.411,0.319-0.621
			c0.012-0.026,0.026-0.053,0.039-0.079c0.114-0.238,0.222-0.478,0.326-0.721c0.024-0.056,0.048-0.112,0.071-0.169
			c0.089-0.213,0.174-0.428,0.256-0.646c0.014-0.038,0.029-0.075,0.043-0.113c0.092-0.252,0.178-0.506,0.258-0.762
			c0.016-0.05,0.03-0.101,0.046-0.151c0.067-0.22,0.131-0.442,0.19-0.666c0.013-0.051,0.028-0.1,0.04-0.151
			c0.066-0.262,0.128-0.526,0.183-0.792c0.009-0.044,0.017-0.088,0.026-0.132c0.045-0.227,0.086-0.457,0.123-0.688
			c0.01-0.064,0.021-0.127,0.03-0.191c0.04-0.268,0.076-0.539,0.103-0.811c0.004-0.034,0.006-0.067,0.009-0.1
			c0.023-0.241,0.042-0.485,0.056-0.728c0.004-0.073,0.008-0.147,0.011-0.22c0.013-0.275,0.021-0.551,0.021-0.829V31.5v-0.001
			c0-0.869-0.065-1.723-0.184-2.56c-0.009-0.07-0.016-0.14-0.026-0.21c-0.023-0.145-0.052-0.288-0.078-0.433
			c-0.028-0.154-0.052-0.31-0.083-0.463c-0.003-0.015-0.007-0.029-0.01-0.045C47.613,19.52,40.271,13.286,31.5,13.286
			c-2.825,0-5.501,0.647-7.89,1.799c-6.104,2.945-10.325,9.196-10.325,16.413c0,0.297,0.01,0.591,0.024,0.884l0.006,0.112
			c0.032,0.588,0.091,1.169,0.177,1.741c0.004,0.028,0.009,0.055,0.014,0.083c0.044,0.284,0.094,0.565,0.151,0.844l0.001,0.004
			c0.059,0.292,0.127,0.58,0.2,0.866c0.003,0.012,0.007,0.025,0.01,0.038c0.071,0.273,0.148,0.543,0.231,0.811l0.013,0.041
			c0.172,0.55,0.369,1.089,0.591,1.615c0.01,0.025,0.021,0.05,0.031,0.075c0.219,0.514,0.461,1.014,0.724,1.503
			c0.02,0.037,0.041,0.074,0.061,0.112c0.133,0.241,0.268,0.48,0.412,0.715c0.115,0.188,0.232,0.372,0.353,0.554
			c0.019,0.028,0.039,0.055,0.057,0.083c0.059,0.09,0.122,0.178,0.183,0.266c0.097,0.14,0.196,0.279,0.297,0.417
			c0.058,0.079,0.116,0.157,0.176,0.236c0.117,0.154,0.237,0.306,0.359,0.456c0.046,0.057,0.091,0.114,0.137,0.17
			c0.177,0.213,0.357,0.423,0.542,0.627c0.149,0.16,0.298,0.319,0.453,0.475c0.014,0.014,0.028,0.028,0.042,0.042
			c0.072,0.073,0.145,0.145,0.218,0.217c0.16,0.158,0.322,0.314,0.487,0.465c0.026,0.023,0.052,0.046,0.078,0.069
			c0.178,0.162,0.361,0.319,0.546,0.473c0.036,0.029,0.071,0.06,0.108,0.09c0.197,0.162,0.397,0.319,0.601,0.473
			c0.04,0.03,0.08,0.059,0.12,0.089c0.186,0.137,0.374,0.272,0.566,0.402c0.051,0.035,0.102,0.07,0.153,0.104
			c0.124,0.083,0.25,0.165,0.377,0.245c0.04,0.026,0.081,0.049,0.121,0.074c0.1,0.063,0.202,0.125,0.303,0.185
			c0.044,0.026,0.088,0.055,0.132,0.081c0.097,0.057,0.196,0.109,0.294,0.164c0.088,0.049,0.173,0.099,0.261,0.146
			c0.234,0.126,0.472,0.249,0.712,0.365c0.017,0.009,0.036,0.016,0.054,0.025c0.228,0.109,0.458,0.213,0.691,0.313
			c0.071,0.031,0.143,0.059,0.214,0.089c0.183,0.076,0.367,0.149,0.553,0.219c0.083,0.031,0.167,0.062,0.252,0.093
			c0.18,0.064,0.361,0.125,0.544,0.184c0.085,0.028,0.169,0.056,0.255,0.083c0.207,0.064,0.417,0.122,0.627,0.179
			c0.14,0.037,0.281,0.072,0.423,0.106c0.146,0.035,0.293,0.072,0.441,0.104c0.017,0.004,0.035,0.006,0.051,0.01
			c0.122,0.026,0.245,0.049,0.367,0.072c0.073,0.014,0.146,0.03,0.22,0.043c0.057,0.01,0.115,0.017,0.171,0.027
			c0.153,0.025,0.307,0.05,0.462,0.072c0.143,0.021,0.286,0.038,0.429,0.055c0.135,0.016,0.27,0.032,0.405,0.045
			c0.178,0.017,0.358,0.029,0.537,0.041c0.107,0.008,0.213,0.016,0.32,0.022c0.291,0.014,0.582,0.022,0.876,0.022
			c0.293,0,0.585-0.008,0.876-0.022c0.111-0.005,0.22-0.015,0.331-0.022c0.174-0.011,0.35-0.023,0.523-0.04
			c0.141-0.013,0.282-0.031,0.422-0.047c0.135-0.016,0.27-0.033,0.404-0.052c0.166-0.023,0.331-0.049,0.496-0.077
			c0.049-0.009,0.098-0.015,0.146-0.023c0.063-0.011,0.125-0.025,0.187-0.037c0.142-0.026,0.283-0.053,0.423-0.083
			C35.318,49.308,35.328,49.306,35.338,49.304 M34.907,48.976c-0.161,0.031-0.323,0.059-0.485,0.086
			c-0.127,0.021-0.254,0.042-0.381,0.06c-0.163,0.023-0.326,0.044-0.491,0.063c-0.113,0.013-0.225,0.027-0.339,0.037
			c-0.193,0.019-0.388,0.033-0.584,0.045c-0.088,0.005-0.174,0.013-0.262,0.017c-0.287,0.014-0.576,0.022-0.866,0.022
			c-0.291,0-0.58-0.008-0.868-0.022c-0.084-0.004-0.167-0.011-0.251-0.017c-0.2-0.012-0.399-0.026-0.597-0.045
			c-0.108-0.01-0.214-0.024-0.321-0.036c-0.172-0.02-0.345-0.042-0.516-0.066c-0.116-0.017-0.232-0.036-0.348-0.055
			c-0.182-0.03-0.364-0.062-0.544-0.097c-0.069-0.014-0.139-0.026-0.208-0.041c-0.264-0.055-0.526-0.115-0.784-0.182l-0.008-0.002
			c-0.267-0.069-0.532-0.145-0.795-0.226c-0.062-0.019-0.124-0.041-0.186-0.061c-0.194-0.062-0.387-0.127-0.578-0.196
			c-0.082-0.03-0.164-0.061-0.245-0.091c-0.172-0.065-0.344-0.133-0.514-0.203c-0.083-0.035-0.167-0.068-0.25-0.104
			c-0.178-0.077-0.354-0.158-0.53-0.24c-0.068-0.032-0.137-0.062-0.204-0.095c-0.223-0.108-0.442-0.221-0.658-0.338
			c-0.119-0.064-0.236-0.131-0.353-0.198c-0.108-0.061-0.216-0.122-0.322-0.185c-0.093-0.055-0.186-0.112-0.279-0.169
			c-0.19-0.118-0.379-0.237-0.563-0.361c-0.011-0.008-0.024-0.015-0.035-0.023c-0.211-0.143-0.417-0.29-0.621-0.442
			c-0.042-0.03-0.083-0.061-0.124-0.092c-0.198-0.149-0.393-0.301-0.583-0.459c-0.035-0.028-0.068-0.057-0.102-0.085
			c-0.174-0.145-0.345-0.293-0.514-0.445c-0.03-0.027-0.06-0.053-0.09-0.08c-0.171-0.156-0.338-0.317-0.502-0.479
			c-0.063-0.062-0.125-0.124-0.186-0.187c-0.092-0.093-0.182-0.19-0.272-0.286c-0.085-0.09-0.172-0.179-0.254-0.271
			c-0.051-0.056-0.1-0.115-0.15-0.171c-0.117-0.132-0.234-0.265-0.347-0.4c-0.044-0.053-0.085-0.106-0.129-0.16
			c-0.128-0.158-0.255-0.318-0.378-0.481c-0.043-0.058-0.086-0.116-0.13-0.174c-0.12-0.163-0.237-0.328-0.352-0.495
			c-0.038-0.056-0.077-0.111-0.115-0.167c-0.126-0.189-0.249-0.38-0.368-0.574c-0.022-0.036-0.044-0.069-0.065-0.104
			c-0.132-0.218-0.259-0.44-0.382-0.663c-0.026-0.049-0.052-0.097-0.078-0.145c-0.11-0.206-0.218-0.413-0.32-0.623
			c-0.013-0.027-0.027-0.053-0.039-0.08c-0.116-0.241-0.227-0.486-0.332-0.733c-0.014-0.031-0.026-0.063-0.04-0.095
			c-0.096-0.231-0.189-0.463-0.276-0.699c-0.009-0.024-0.018-0.048-0.026-0.071c-0.096-0.261-0.185-0.525-0.268-0.791
			c-0.005-0.014-0.009-0.028-0.013-0.041c-0.079-0.255-0.152-0.512-0.219-0.771c-0.006-0.024-0.012-0.048-0.019-0.072
			c-0.14-0.546-0.254-1.101-0.342-1.665c-0.004-0.026-0.008-0.052-0.012-0.077c-0.086-0.565-0.144-1.137-0.175-1.717
			c-0.002-0.028-0.003-0.056-0.004-0.083c-0.014-0.291-0.023-0.582-0.023-0.876c0-7.363,4.493-13.697,10.882-16.404
			c2.129-0.902,4.47-1.402,6.924-1.402c9.819,0,17.805,7.989,17.805,17.805c0,0.079-0.003,0.156-0.004,0.234
			c-0.002,0.17-0.006,0.34-0.013,0.509c-0.005,0.122-0.011,0.243-0.019,0.363c-0.01,0.153-0.022,0.306-0.035,0.459
			c-0.015,0.159-0.03,0.317-0.048,0.474c-0.02,0.171-0.041,0.342-0.065,0.512c-0.018,0.124-0.038,0.247-0.058,0.371
			c-0.022,0.133-0.046,0.267-0.072,0.4c-0.028,0.149-0.057,0.298-0.089,0.446c-0.039,0.179-0.079,0.358-0.124,0.535
			c-0.031,0.126-0.065,0.251-0.099,0.375c-0.032,0.118-0.066,0.236-0.1,0.354c-0.037,0.123-0.072,0.247-0.111,0.369
			c-0.064,0.199-0.131,0.396-0.201,0.592c-0.045,0.125-0.092,0.247-0.139,0.371c-0.042,0.108-0.084,0.215-0.128,0.322
			c-0.049,0.123-0.099,0.246-0.152,0.367c-0.073,0.169-0.149,0.336-0.227,0.502c-0.065,0.138-0.132,0.274-0.2,0.41
			c-0.052,0.102-0.103,0.204-0.157,0.305c-0.062,0.117-0.123,0.234-0.188,0.349c-0.068,0.122-0.137,0.241-0.207,0.361
			c-0.038,0.063-0.073,0.127-0.11,0.189c-0.071,0.118-0.146,0.234-0.22,0.351c-0.059,0.093-0.118,0.187-0.18,0.28
			c-0.077,0.118-0.157,0.233-0.237,0.349c-0.073,0.105-0.147,0.209-0.222,0.312c-0.077,0.105-0.153,0.21-0.232,0.313
			c-0.078,0.102-0.158,0.203-0.238,0.303c-0.086,0.108-0.171,0.216-0.258,0.32c-0.03,0.036-0.061,0.069-0.091,0.104
			c-0.123,0.145-0.247,0.29-0.375,0.43c-0.106,0.119-0.218,0.235-0.328,0.351c-0.056,0.058-0.111,0.118-0.168,0.176
			c-0.08,0.082-0.162,0.163-0.243,0.243c-0.15,0.147-0.301,0.293-0.455,0.434c-0.052,0.048-0.106,0.094-0.159,0.142
			c-0.139,0.124-0.28,0.247-0.424,0.366c-0.055,0.046-0.108,0.092-0.163,0.137c-0.176,0.145-0.356,0.286-0.539,0.424
			c-0.059,0.045-0.119,0.089-0.178,0.133c-0.189,0.139-0.379,0.276-0.574,0.408c-0.034,0.023-0.069,0.045-0.103,0.068
			c-0.16,0.108-0.324,0.212-0.488,0.314c-0.109,0.067-0.217,0.133-0.327,0.198c-0.079,0.048-0.161,0.092-0.241,0.139
			c-0.14,0.081-0.281,0.162-0.424,0.238c-0.151,0.081-0.305,0.158-0.458,0.235c-0.156,0.078-0.313,0.153-0.471,0.226
			c-0.142,0.065-0.283,0.131-0.425,0.192c-0.105,0.045-0.211,0.089-0.317,0.132c-0.144,0.058-0.287,0.116-0.433,0.171
			c-0.104,0.04-0.208,0.078-0.313,0.116c-0.159,0.057-0.319,0.11-0.48,0.163c-0.093,0.031-0.184,0.062-0.277,0.09
			c-0.249,0.077-0.5,0.149-0.754,0.214c-0.049,0.013-0.098,0.023-0.147,0.035c-0.213,0.053-0.426,0.103-0.642,0.149
			C35.085,48.942,34.996,48.958,34.907,48.976"/>
		<polygon class="st0" points="22.081,49.909 22.574,50.169 22.391,50.518 20.978,49.776 21.161,49.426 21.663,49.69 22.445,48.2 
			22.862,48.419 		"/>
		<path class="st0" d="M19.543,48.861l0.694-0.973c0.207-0.291,0.202-0.518,0.007-0.657c-0.201-0.144-0.412-0.082-0.624,0.217
			l-0.694,0.974l-0.381-0.272L19.22,47.2c0.372-0.522,0.813-0.583,1.254-0.268c0.427,0.305,0.509,0.719,0.125,1.259l-0.673,0.944
			L19.543,48.861z M18.937,48.835c-0.07,0.097-0.196,0.121-0.294,0.051c-0.095-0.069-0.115-0.195-0.045-0.293
			c0.066-0.093,0.192-0.12,0.29-0.05C18.988,48.613,19.003,48.742,18.937,48.835 M19.46,49.207c-0.07,0.098-0.199,0.12-0.297,0.05
			c-0.093-0.066-0.112-0.193-0.042-0.291c0.066-0.093,0.192-0.12,0.287-0.053C19.508,48.985,19.525,49.114,19.46,49.207"/>
		<path class="st0" d="M17.489,47.235c-0.127-0.086-0.303-0.227-0.484-0.399c-0.224-0.213-0.349-0.395-0.375-0.582
			c-0.022-0.157,0.029-0.308,0.16-0.447c0.183-0.192,0.445-0.195,0.619-0.118l0.006-0.007c-0.065-0.143-0.028-0.298,0.066-0.473
			c0.115-0.214,0.254-0.456,0.28-0.542l0.35,0.331c-0.016,0.066-0.097,0.223-0.228,0.451c-0.138,0.226-0.122,0.339,0.015,0.473
			L18,46.019l0.562-0.593l0.338,0.32L17.489,47.235z M17.767,46.265l-0.135-0.127c-0.17-0.162-0.351-0.172-0.476-0.04
			c-0.132,0.139-0.103,0.297,0.051,0.448c0.083,0.078,0.137,0.116,0.165,0.135L17.767,46.265z"/>
		<path class="st0" d="M15.496,45.253l-0.291-0.363l0.716-0.575l-0.005-0.008c-0.092,0.014-0.18,0.022-0.267,0.033l-0.834,0.064
			l-0.361-0.45l1.121-0.018l0.476-1.311l0.344,0.427l-0.381,0.958l0.282,0.003l0.529-0.425l0.291,0.363L15.496,45.253z"/>
		<path class="st0" d="M13.512,43.136c-0.102,0.065-0.231,0.034-0.295-0.068c-0.063-0.099-0.033-0.224,0.069-0.288
			c0.093-0.059,0.225-0.036,0.287,0.062C13.64,42.945,13.606,43.076,13.512,43.136 M13.551,42.581l1.753-1.113l0.253,0.399
			l-1.753,1.113L13.551,42.581z"/>
		<path class="st0" d="M14.546,40.118l-0.763,0.377l-0.809,1.132l-0.238-0.481l0.354-0.412c0.107-0.125,0.187-0.213,0.285-0.32
			l-0.003-0.005c-0.136,0.016-0.266,0.025-0.426,0.036l-0.54,0.033l-0.234-0.473l1.39,0.077l0.776-0.384L14.546,40.118z"/>
		<polygon class="st0" points="12.479,37.393 12.73,38.116 13.195,37.954 12.916,37.147 13.279,37.02 13.715,38.273 11.751,38.955 
			11.33,37.743 11.694,37.617 11.961,38.383 12.368,38.241 12.117,37.518 		"/>
		<path class="st0" d="M12.465,33.198c0.055,0.079,0.126,0.266,0.16,0.517c0.096,0.711-0.299,1.138-0.885,1.217
			c-0.703,0.095-1.161-0.354-1.245-0.978c-0.032-0.241-0.008-0.431,0.024-0.52l0.382,0.045c-0.027,0.1-0.046,0.237-0.024,0.401
			c0.049,0.37,0.311,0.627,0.769,0.566c0.413-0.056,0.64-0.335,0.583-0.751c-0.018-0.14-0.07-0.292-0.119-0.379L12.465,33.198z"/>
		<path class="st0" d="M10.383,31.701l1.196,0.009c0.357,0.002,0.54-0.132,0.542-0.372c0.002-0.246-0.17-0.384-0.536-0.386
			l-1.196-0.009l0.004-0.469l1.164,0.009c0.641,0.005,0.944,0.33,0.94,0.873c-0.004,0.524-0.296,0.829-0.958,0.825l-1.159-0.009
			L10.383,31.701z"/>
		<path class="st0" d="M12.054,27.524c-0.248-0.033-0.548-0.074-0.845-0.124l-0.002,0.009c0.251,0.108,0.528,0.243,0.755,0.362
			l0.757,0.385l-0.061,0.361l-0.83,0.085c-0.252,0.027-0.555,0.048-0.831,0.051l-0.001,0.006c0.275,0.059,0.589,0.122,0.842,0.18
			l0.772,0.167l-0.072,0.429l-2.027-0.477l0.104-0.617l0.718-0.085c0.248-0.024,0.514-0.045,0.762-0.049l0.002-0.009
			c-0.228-0.098-0.486-0.213-0.703-0.319l-0.644-0.334l0.102-0.605l2.069,0.233l-0.077,0.453L12.054,27.524z"/>
		<polygon class="st0" points="11.382,25.05 12.138,25.307 12.387,24.573 11.631,24.317 11.781,23.873 13.75,24.541 13.599,24.984 
			12.776,24.705 12.527,25.438 13.35,25.717 13.199,26.164 11.231,25.497 		"/>
		<path class="st0" d="M12.544,22.156l1.065,0.545c0.319,0.163,0.542,0.124,0.651-0.089c0.112-0.219,0.021-0.42-0.306-0.586
			l-1.065-0.545l0.213-0.416l1.037,0.53c0.571,0.292,0.695,0.719,0.448,1.202c-0.239,0.467-0.637,0.609-1.227,0.307l-1.032-0.528
			L12.544,22.156z"/>
		<path class="st0" d="M13.85,19.893c0.067-0.138,0.181-0.333,0.324-0.537c0.177-0.252,0.339-0.402,0.52-0.456
			c0.151-0.044,0.308-0.016,0.465,0.093c0.217,0.152,0.258,0.411,0.209,0.594l0.008,0.005c0.131-0.085,0.291-0.071,0.477-0.004
			c0.229,0.082,0.488,0.184,0.577,0.198l-0.276,0.393c-0.068-0.006-0.234-0.062-0.48-0.159c-0.244-0.103-0.353-0.071-0.465,0.084
			l-0.081,0.116l0.668,0.469l-0.267,0.381L13.85,19.893z M14.849,20.025l0.106-0.151c0.135-0.192,0.118-0.373-0.03-0.477
			c-0.157-0.11-0.31-0.058-0.435,0.117c-0.065,0.093-0.095,0.151-0.11,0.183L14.849,20.025z"/>
		<path class="st0" d="M15.268,17.427c-0.09-0.08-0.097-0.213-0.017-0.303c0.077-0.088,0.206-0.095,0.296-0.015
			c0.083,0.073,0.098,0.206,0.022,0.294C15.486,17.496,15.352,17.499,15.268,17.427 M15.811,17.308l1.563,1.37l-0.312,0.355
			l-1.562-1.37L15.811,17.308z"/>
		<path class="st0" d="M18.448,17.578l-0.575-0.626l-1.314-0.459l0.394-0.363l0.495,0.224c0.15,0.067,0.257,0.12,0.387,0.184
			l0.005-0.004c-0.054-0.126-0.099-0.248-0.153-0.399l-0.184-0.509l0.388-0.357l0.317,1.355l0.586,0.638L18.448,17.578z"/>
		<polygon class="st0" points="20.492,14.827 19.869,15.269 20.154,15.672 20.851,15.178 21.073,15.492 19.992,16.259 18.79,14.565 
			19.836,13.822 20.059,14.137 19.398,14.606 19.648,14.958 20.271,14.516 		"/>
		<polygon class="st0" points="21.525,13.275 21.033,13.537 20.847,13.19 22.256,12.438 22.442,12.786 21.941,13.053 22.733,14.538 
			22.317,14.76 		"/>
		<path class="st0" d="M23.238,11.647c-0.045-0.111,0.009-0.233,0.12-0.278c0.108-0.044,0.226,0.008,0.271,0.119
			c0.042,0.103-0.003,0.228-0.112,0.272C23.403,11.806,23.279,11.75,23.238,11.647 M23.776,11.783l0.784,1.924l-0.436,0.178
			l-0.784-1.924L23.776,11.783z"/>
		<polygon class="st0" points="26.831,11.244 26.286,11.364 26.201,10.978 27.761,10.635 27.845,11.021 27.292,11.143 
			27.652,12.786 27.192,12.888 		"/>
		<path class="st0" d="M29.365,11.973l-0.098,0.546l-0.485,0.045l0.439-2.129l0.615-0.058l0.835,2.01l-0.504,0.048l-0.209-0.517
			L29.365,11.973z M29.857,11.574l-0.17-0.427c-0.049-0.119-0.1-0.27-0.142-0.389l-0.006,0.001
			c-0.019,0.126-0.035,0.286-0.058,0.408L29.4,11.617L29.857,11.574z"/>
		<path class="st0" d="M31.746,10.333c0.152-0.018,0.378-0.025,0.627-0.014c0.308,0.014,0.522,0.07,0.663,0.194
			c0.119,0.104,0.18,0.252,0.171,0.443c-0.012,0.265-0.209,0.438-0.39,0.494l-0.001,0.009c0.142,0.065,0.216,0.207,0.259,0.401
			c0.053,0.237,0.106,0.51,0.142,0.593l-0.48-0.023c-0.031-0.059-0.072-0.231-0.123-0.49c-0.043-0.261-0.129-0.337-0.32-0.348
			l-0.142-0.006l-0.038,0.816l-0.465-0.022L31.746,10.333z M32.17,11.247l0.185,0.009c0.234,0.01,0.378-0.1,0.387-0.282
			c0.009-0.191-0.116-0.292-0.332-0.305c-0.114-0.005-0.179,0.001-0.213,0.005L32.17,11.247z"/>
		
			<rect x="33.544" y="11.359" transform="matrix(0.1544 -0.988 0.988 0.1544 17.7877 43.9725)" class="st0" width="2.078" height="0.472"/>
		<path class="st0" d="M37.658,12.567c0.061-0.242,0.136-0.535,0.219-0.825l-0.009-0.002c-0.136,0.237-0.301,0.497-0.446,0.708
			l-0.467,0.709l-0.353-0.102l0.01-0.835c0.003-0.252,0.017-0.556,0.044-0.831l-0.005-0.001c-0.09,0.266-0.188,0.572-0.274,0.816
			l-0.255,0.749l-0.418-0.122l0.704-1.959l0.601,0.174l0.003,0.723c-0.005,0.248-0.015,0.516-0.038,0.763l0.009,0.002
			c0.123-0.215,0.267-0.459,0.397-0.662l0.405-0.602l0.589,0.17l-0.467,2.028l-0.441-0.127L37.658,12.567z"/>
		<path class="st0" d="M40.446,14.62l0.416-2.143l0.451,0.247l-0.201,0.893c-0.056,0.25-0.114,0.489-0.195,0.741l0.008,0.004
			c0.166-0.193,0.342-0.379,0.518-0.553l0.659-0.651l0.439,0.24l-1.614,1.486L40.446,14.62z"/>
		<polygon class="st0" points="43.824,15.757 43.207,15.306 42.916,15.703 43.605,16.208 43.377,16.519 42.308,15.735 43.536,14.06 
			44.57,14.818 44.342,15.129 43.689,14.65 43.434,14.998 44.05,15.45 		"/>
		<path class="st0" d="M47.212,18.816c-0.509,0.454-1.093,0.421-1.497-0.033c-0.411-0.46-0.304-1.039,0.138-1.434
			c0.465-0.414,1.077-0.428,1.486,0.03C47.764,17.856,47.64,18.435,47.212,18.816 M46.191,17.714
			c-0.304,0.271-0.391,0.604-0.181,0.839c0.212,0.237,0.558,0.172,0.859-0.097c0.278-0.249,0.399-0.596,0.184-0.838
			C46.841,17.382,46.492,17.445,46.191,17.714"/>
		<path class="st0" d="M48.726,19.2c0.104,0.112,0.244,0.29,0.381,0.498c0.171,0.258,0.251,0.463,0.236,0.651
			c-0.014,0.157-0.098,0.294-0.257,0.4c-0.221,0.146-0.477,0.09-0.63-0.023l-0.007,0.005c0.031,0.153-0.041,0.297-0.171,0.446
			c-0.16,0.183-0.35,0.387-0.395,0.466l-0.265-0.401c0.03-0.061,0.144-0.196,0.323-0.388c0.186-0.19,0.196-0.304,0.092-0.465
			l-0.078-0.118l-0.682,0.452l-0.257-0.388L48.726,19.2z M48.237,20.082l0.102,0.155c0.13,0.196,0.304,0.246,0.456,0.146
			c0.159-0.106,0.167-0.267,0.051-0.448c-0.063-0.096-0.106-0.145-0.131-0.17L48.237,20.082z"/>
		<path class="st0" d="M49.822,23.734c0.223-0.113,0.493-0.247,0.768-0.374l-0.004-0.009c-0.268,0.053-0.573,0.098-0.828,0.127
			l-0.843,0.11l-0.153-0.333l0.638-0.539c0.192-0.164,0.432-0.352,0.658-0.51L50.056,22.2c-0.26,0.106-0.555,0.233-0.797,0.327
			l-0.732,0.297l-0.182-0.395l1.943-0.75l0.263,0.569l-0.545,0.476c-0.192,0.159-0.4,0.326-0.601,0.47l0.003,0.009
			c0.244-0.048,0.522-0.098,0.761-0.133l0.721-0.088l0.257,0.557l-1.84,0.974l-0.192-0.417L49.822,23.734z"/>
		<path class="st0" d="M50.286,25.817l-0.554,0.003L49.6,25.352l2.173,0.044l0.169,0.594l-1.824,1.187l-0.138-0.487l0.469-0.3
			L50.286,25.817z M50.768,26.229l0.389-0.245c0.108-0.069,0.247-0.147,0.357-0.21l-0.002-0.006
			c-0.127,0.004-0.287,0.017-0.412,0.017l-0.458,0.002L50.768,26.229z"/>
		<path class="st0" d="M50.307,28.131l2.061-0.267l0.071,0.545l-0.7,0.526c-0.201,0.151-0.442,0.306-0.663,0.428l0.002,0.01
			c0.268-0.066,0.545-0.111,0.854-0.151l0.602-0.078l0.056,0.428l-2.062,0.267l-0.064-0.489l0.738-0.544
			c0.205-0.151,0.453-0.32,0.682-0.452l-0.004-0.009c-0.271,0.047-0.56,0.091-0.897,0.135l-0.621,0.08L50.307,28.131z"/>
		<path class="st0" d="M52.611,32.476c0.014,0.124,0.012,0.375-0.009,0.608c-0.024,0.286-0.067,0.458-0.169,0.601
			c-0.089,0.138-0.239,0.23-0.427,0.214c-0.184-0.016-0.347-0.138-0.413-0.379l-0.006-0.001c-0.085,0.231-0.278,0.391-0.545,0.368
			c-0.187-0.016-0.328-0.115-0.421-0.253c-0.107-0.16-0.153-0.418-0.118-0.83c0.019-0.231,0.049-0.401,0.073-0.504L52.611,32.476z
			 M50.861,32.793c-0.011,0.045-0.016,0.101-0.022,0.18c-0.018,0.212,0.046,0.406,0.264,0.426c0.209,0.017,0.307-0.163,0.327-0.397
			l0.014-0.159L50.861,32.793z M51.779,32.872l-0.012,0.153c-0.021,0.246,0.069,0.387,0.223,0.4c0.156,0.014,0.25-0.099,0.267-0.311
			c0.009-0.101,0.008-0.16,0.005-0.2L51.779,32.872z"/>
		<path class="st0" d="M50.697,35.423l-0.487-0.261l0.108-0.475l1.886,1.078l-0.136,0.601l-2.169,0.17l0.112-0.493l0.555-0.039
			L50.697,35.423z M50.924,36.015l0.459-0.029c0.129-0.009,0.287-0.011,0.414-0.013l0.002-0.006
			c-0.113-0.057-0.26-0.122-0.369-0.182l-0.404-0.218L50.924,36.015z"/>
		<path class="st0" d="M51.552,38.197l-0.164,0.435l-0.86-0.323l-0.003,0.009c0.058,0.071,0.111,0.144,0.163,0.213l0.481,0.684
			l-0.203,0.54l-0.586-0.955l-1.372,0.258l0.193-0.513l1.019-0.161l-0.142-0.244l-0.635-0.239l0.164-0.435L51.552,38.197z"/>
		<path class="st0" d="M48.845,40.581l-0.397-0.386l0.234-0.427l1.518,1.554l-0.295,0.541l-2.133-0.431l0.243-0.443l0.545,0.115
			L48.845,40.581z M48.9,41.213l0.449,0.098c0.126,0.026,0.279,0.068,0.402,0.1l0.003-0.005c-0.093-0.086-0.216-0.188-0.306-0.276
			l-0.328-0.32L48.9,41.213z"/>
		<path class="st0" d="M47.238,42.249l1.66,1.249l-0.33,0.438l-0.868-0.113c-0.248-0.033-0.53-0.091-0.772-0.157l-0.006,0.007
			c0.238,0.14,0.467,0.301,0.716,0.489l0.485,0.365l-0.26,0.345l-1.659-1.249l0.297-0.394l0.907,0.127
			c0.251,0.035,0.547,0.088,0.803,0.153l0.003-0.01c-0.227-0.154-0.465-0.326-0.736-0.529l-0.499-0.376L47.238,42.249z"/>
		<polygon class="st0" points="46.943,45.912 46.611,46.247 45.414,45.064 44.833,45.651 44.552,45.374 45.465,44.45 		"/>
		
			<rect x="44.044" y="45.938" transform="matrix(0.7722 -0.6354 0.6354 0.7722 -19.7612 38.8366)" class="st0" width="0.471" height="2.077"/>
		<path class="st0" d="M41.142,48.035c0.096-0.119,0.29-0.325,0.52-0.474c0.319-0.205,0.602-0.273,0.863-0.221
			c0.258,0.047,0.493,0.218,0.655,0.476c0.372,0.583,0.163,1.187-0.411,1.556c-0.226,0.145-0.428,0.212-0.54,0.226l-0.12-0.37
			c0.123-0.02,0.264-0.063,0.456-0.186c0.329-0.212,0.458-0.56,0.214-0.938c-0.232-0.36-0.594-0.428-0.919-0.219
			c-0.091,0.058-0.157,0.116-0.178,0.151l0.235,0.366l0.27-0.174l0.199,0.308l-0.651,0.419L41.142,48.035z M43.301,49.616
			c-0.044-0.052-0.121-0.091-0.23-0.021c-0.109,0.07-0.113,0.154-0.086,0.225l-0.199,0.128c-0.119-0.191-0.097-0.4,0.152-0.56
			c0.254-0.164,0.446-0.093,0.574,0.093L43.301,49.616z"/>
		
			<rect x="40.149" y="48.445" transform="matrix(0.8976 -0.4409 0.4409 0.8976 -17.6792 22.8729)" class="st0" width="0.472" height="2.078"/>
		<path class="st0" d="M35.338,49.304c0.085-0.018,0.169-0.04,0.254-0.059c0.253-0.058,0.506-0.122,0.756-0.191
			c0.153-0.043,0.307-0.085,0.46-0.131c0.112-0.034,0.223-0.071,0.334-0.108c0.153-0.05,0.305-0.1,0.456-0.155
			c0.106-0.038,0.211-0.077,0.315-0.116c0.16-0.06,0.318-0.123,0.475-0.187c0.094-0.039,0.189-0.076,0.281-0.116
			c0.194-0.084,0.386-0.171,0.576-0.261c0.056-0.026,0.113-0.051,0.169-0.078c0.229-0.111,0.455-0.227,0.678-0.348
			c0.108-0.058,0.213-0.119,0.32-0.179c0.083-0.047,0.167-0.091,0.248-0.139c0.043-0.025,0.085-0.052,0.127-0.077
			c0.095-0.057,0.189-0.113,0.283-0.172c0.049-0.03,0.098-0.058,0.147-0.09c0.138-0.088,0.276-0.178,0.412-0.27
			c0.039-0.026,0.078-0.053,0.117-0.08c0.182-0.124,0.36-0.252,0.537-0.382c0.058-0.042,0.115-0.084,0.172-0.127
			c0.186-0.141,0.37-0.286,0.55-0.433c0.061-0.05,0.12-0.1,0.18-0.151c0.146-0.122,0.29-0.246,0.431-0.373
			c0.084-0.075,0.167-0.151,0.25-0.227c0.12-0.111,0.238-0.224,0.354-0.338c0.092-0.09,0.183-0.18,0.273-0.272
			c0.006-0.005,0.011-0.011,0.017-0.016c0.073-0.075,0.144-0.151,0.216-0.226c0.139-0.148,0.278-0.299,0.413-0.451
			c0.115-0.13,0.229-0.26,0.34-0.393c0.073-0.087,0.143-0.176,0.214-0.264c0.098-0.122,0.196-0.245,0.291-0.37
			c0.072-0.095,0.143-0.19,0.213-0.286c0.082-0.112,0.162-0.225,0.241-0.339c0.083-0.119,0.166-0.239,0.247-0.361
			c0.008-0.012,0.017-0.025,0.025-0.038c0.103-0.153,0.199-0.307,0.295-0.463c0.033-0.053,0.066-0.106,0.098-0.159
			c0.121-0.2,0.238-0.405,0.351-0.61c0.036-0.065,0.071-0.13,0.106-0.195c0.11-0.205,0.216-0.411,0.318-0.621
			c0.012-0.026,0.026-0.053,0.039-0.079c0.114-0.238,0.222-0.478,0.326-0.721c0.024-0.056,0.048-0.112,0.071-0.169
			c0.089-0.213,0.174-0.428,0.256-0.646c0.014-0.038,0.029-0.075,0.043-0.113c0.092-0.252,0.178-0.506,0.258-0.762
			c0.016-0.05,0.031-0.101,0.046-0.151c0.067-0.22,0.131-0.442,0.19-0.666c0.013-0.051,0.028-0.1,0.04-0.151
			c0.067-0.262,0.128-0.526,0.183-0.792c0.01-0.044,0.017-0.088,0.026-0.132c0.045-0.227,0.086-0.457,0.123-0.688
			c0.011-0.064,0.021-0.127,0.031-0.191c0.039-0.268,0.075-0.539,0.103-0.811c0.003-0.034,0.005-0.067,0.009-0.1
			c0.024-0.241,0.042-0.485,0.056-0.728c0.004-0.073,0.008-0.147,0.011-0.22c0.013-0.275,0.021-0.551,0.021-0.829V31.5v-0.001
			c0-0.869-0.065-1.723-0.184-2.56c-0.009-0.07-0.016-0.14-0.026-0.21c-0.023-0.145-0.052-0.288-0.078-0.433
			c-0.028-0.154-0.052-0.31-0.083-0.463c-0.003-0.015-0.008-0.029-0.011-0.045C47.614,19.52,40.273,13.286,31.5,13.286
			c-2.825,0-5.501,0.647-7.89,1.799c-6.104,2.945-10.325,9.196-10.325,16.413c0,0.297,0.009,0.591,0.024,0.884
			c0.002,0.038,0.003,0.075,0.005,0.112c0.032,0.588,0.091,1.169,0.178,1.741c0.004,0.028,0.009,0.055,0.013,0.083
			c0.044,0.284,0.094,0.565,0.151,0.844l0.001,0.004c0.059,0.292,0.126,0.58,0.2,0.866c0.004,0.012,0.008,0.025,0.011,0.038
			c0.071,0.273,0.147,0.543,0.231,0.811c0.004,0.014,0.008,0.028,0.012,0.041c0.172,0.55,0.369,1.089,0.592,1.615
			c0.01,0.025,0.021,0.05,0.031,0.075c0.219,0.514,0.461,1.014,0.724,1.503c0.02,0.037,0.04,0.074,0.06,0.112
			c0.133,0.241,0.268,0.48,0.412,0.715c0.115,0.188,0.232,0.372,0.353,0.554c0.019,0.028,0.039,0.055,0.057,0.083
			c0.059,0.09,0.122,0.178,0.183,0.266c0.097,0.14,0.196,0.279,0.297,0.417c0.058,0.079,0.116,0.157,0.176,0.236
			c0.117,0.154,0.237,0.306,0.359,0.456c0.046,0.057,0.091,0.114,0.137,0.17c0.177,0.213,0.357,0.423,0.542,0.627
			c0.149,0.16,0.299,0.319,0.453,0.475c0.014,0.014,0.028,0.028,0.043,0.042c0.072,0.073,0.144,0.145,0.218,0.217
			c0.159,0.158,0.321,0.314,0.487,0.465c0.025,0.023,0.052,0.046,0.077,0.069c0.178,0.162,0.361,0.319,0.546,0.473
			c0.036,0.029,0.071,0.06,0.108,0.09c0.197,0.162,0.397,0.319,0.601,0.473c0.039,0.03,0.08,0.059,0.12,0.089
			c0.186,0.137,0.374,0.272,0.566,0.402c0.051,0.035,0.102,0.07,0.153,0.104c0.125,0.083,0.25,0.165,0.377,0.245
			c0.04,0.026,0.082,0.049,0.121,0.074c0.1,0.063,0.202,0.125,0.303,0.185c0.045,0.026,0.088,0.055,0.133,0.081
			c0.097,0.057,0.196,0.109,0.293,0.164c0.088,0.049,0.173,0.099,0.261,0.146c0.234,0.126,0.472,0.249,0.712,0.365
			c0.018,0.009,0.036,0.016,0.054,0.025c0.228,0.109,0.458,0.213,0.691,0.313c0.071,0.031,0.143,0.059,0.215,0.089
			c0.182,0.076,0.367,0.149,0.553,0.219c0.084,0.031,0.167,0.062,0.252,0.093c0.18,0.064,0.361,0.125,0.544,0.184
			c0.085,0.028,0.17,0.056,0.255,0.083c0.207,0.064,0.417,0.122,0.627,0.179c0.14,0.037,0.281,0.072,0.423,0.106
			c0.147,0.035,0.293,0.072,0.441,0.104c0.017,0.004,0.035,0.006,0.051,0.01c0.122,0.026,0.245,0.049,0.368,0.072
			c0.073,0.014,0.146,0.03,0.22,0.043c0.057,0.01,0.115,0.017,0.172,0.027c0.153,0.025,0.307,0.05,0.462,0.072
			c0.143,0.021,0.286,0.038,0.429,0.055c0.135,0.016,0.27,0.032,0.406,0.045c0.178,0.017,0.358,0.029,0.538,0.041
			c0.106,0.008,0.212,0.016,0.319,0.022c0.291,0.014,0.582,0.022,0.876,0.022c0.293,0,0.585-0.008,0.876-0.022
			c0.111-0.005,0.221-0.015,0.331-0.022c0.175-0.011,0.35-0.023,0.523-0.04c0.142-0.013,0.282-0.031,0.422-0.047
			c0.136-0.016,0.27-0.033,0.404-0.052c0.166-0.023,0.331-0.049,0.496-0.077c0.049-0.009,0.098-0.015,0.147-0.023
			c0.062-0.011,0.124-0.025,0.186-0.037c0.142-0.026,0.283-0.053,0.423-0.083C35.319,49.308,35.328,49.306,35.338,49.304
			 M34.908,48.976c-0.161,0.031-0.323,0.059-0.485,0.086c-0.127,0.021-0.254,0.042-0.381,0.06c-0.163,0.023-0.326,0.044-0.491,0.063
			c-0.113,0.013-0.225,0.027-0.339,0.037c-0.193,0.019-0.388,0.033-0.584,0.045c-0.088,0.005-0.174,0.013-0.262,0.017
			c-0.287,0.014-0.575,0.022-0.866,0.022c-0.291,0-0.58-0.008-0.868-0.022c-0.084-0.004-0.167-0.011-0.251-0.017
			c-0.2-0.012-0.399-0.026-0.597-0.045c-0.108-0.01-0.214-0.024-0.321-0.036c-0.172-0.02-0.345-0.042-0.515-0.066
			c-0.117-0.017-0.233-0.036-0.348-0.055c-0.182-0.03-0.364-0.062-0.544-0.097c-0.069-0.014-0.139-0.026-0.208-0.041
			c-0.264-0.055-0.526-0.115-0.784-0.182l-0.008-0.002c-0.267-0.069-0.532-0.145-0.795-0.226c-0.063-0.019-0.124-0.041-0.187-0.061
			c-0.194-0.062-0.386-0.127-0.578-0.196c-0.082-0.03-0.164-0.061-0.245-0.091c-0.172-0.065-0.344-0.133-0.514-0.203
			c-0.083-0.035-0.167-0.068-0.25-0.104c-0.178-0.077-0.354-0.158-0.53-0.24c-0.068-0.032-0.136-0.062-0.204-0.095
			c-0.223-0.108-0.441-0.221-0.658-0.338c-0.119-0.064-0.236-0.131-0.353-0.198c-0.108-0.061-0.216-0.122-0.322-0.185
			c-0.093-0.055-0.186-0.112-0.279-0.169c-0.189-0.118-0.378-0.237-0.563-0.361c-0.011-0.008-0.023-0.015-0.035-0.023
			c-0.211-0.143-0.416-0.29-0.621-0.442c-0.042-0.03-0.083-0.061-0.124-0.092c-0.198-0.149-0.392-0.301-0.583-0.459
			c-0.035-0.028-0.068-0.057-0.102-0.085c-0.174-0.145-0.345-0.293-0.514-0.445c-0.03-0.027-0.06-0.053-0.09-0.08
			c-0.171-0.156-0.337-0.317-0.502-0.479c-0.063-0.062-0.125-0.124-0.186-0.187c-0.092-0.093-0.182-0.19-0.272-0.286
			c-0.085-0.09-0.172-0.179-0.254-0.271c-0.051-0.056-0.1-0.115-0.15-0.171c-0.117-0.132-0.234-0.265-0.347-0.4
			c-0.044-0.053-0.085-0.106-0.129-0.16c-0.128-0.158-0.255-0.318-0.378-0.481c-0.044-0.058-0.087-0.116-0.13-0.174
			c-0.119-0.163-0.237-0.328-0.352-0.495c-0.038-0.056-0.077-0.111-0.115-0.167c-0.126-0.189-0.249-0.38-0.368-0.574
			c-0.022-0.036-0.044-0.069-0.065-0.104c-0.132-0.218-0.258-0.44-0.381-0.663c-0.026-0.049-0.052-0.097-0.078-0.145
			c-0.11-0.206-0.218-0.413-0.32-0.623c-0.012-0.027-0.026-0.053-0.039-0.08c-0.116-0.241-0.226-0.486-0.332-0.733
			c-0.014-0.031-0.026-0.063-0.039-0.095c-0.097-0.231-0.189-0.464-0.276-0.699c-0.009-0.024-0.018-0.048-0.027-0.071
			c-0.095-0.261-0.185-0.525-0.268-0.791l-0.013-0.041c-0.078-0.255-0.151-0.512-0.219-0.771c-0.006-0.024-0.012-0.048-0.019-0.072
			c-0.14-0.546-0.254-1.101-0.341-1.665l-0.012-0.077c-0.085-0.565-0.144-1.137-0.175-1.717c-0.002-0.028-0.003-0.056-0.004-0.083
			c-0.014-0.291-0.022-0.582-0.022-0.876c0-7.363,4.493-13.697,10.882-16.404c2.129-0.902,4.469-1.402,6.924-1.402
			c9.819,0,17.805,7.989,17.805,17.805c0,0.079-0.003,0.156-0.003,0.234c-0.002,0.17-0.006,0.34-0.014,0.509
			c-0.005,0.122-0.011,0.243-0.019,0.363c-0.009,0.153-0.022,0.306-0.035,0.459c-0.014,0.158-0.03,0.317-0.048,0.474
			c-0.02,0.171-0.041,0.342-0.065,0.512c-0.018,0.124-0.038,0.247-0.058,0.371c-0.022,0.133-0.046,0.267-0.071,0.4
			c-0.028,0.149-0.057,0.298-0.09,0.446c-0.038,0.179-0.079,0.358-0.124,0.535c-0.031,0.126-0.065,0.251-0.099,0.375
			c-0.032,0.118-0.066,0.236-0.1,0.354c-0.037,0.123-0.072,0.247-0.111,0.369c-0.064,0.199-0.131,0.396-0.201,0.592
			c-0.044,0.125-0.092,0.247-0.139,0.371c-0.042,0.108-0.084,0.215-0.127,0.322c-0.05,0.123-0.099,0.246-0.152,0.367
			c-0.073,0.169-0.149,0.336-0.227,0.502c-0.065,0.138-0.132,0.274-0.2,0.41c-0.051,0.102-0.103,0.204-0.157,0.305
			c-0.061,0.117-0.123,0.234-0.187,0.349c-0.068,0.122-0.137,0.241-0.207,0.361c-0.037,0.063-0.073,0.127-0.11,0.189
			c-0.071,0.118-0.146,0.234-0.22,0.351c-0.059,0.093-0.118,0.187-0.18,0.28c-0.077,0.118-0.158,0.233-0.238,0.349
			c-0.073,0.105-0.147,0.209-0.222,0.312c-0.077,0.105-0.153,0.21-0.232,0.313c-0.078,0.102-0.158,0.203-0.238,0.303
			c-0.086,0.108-0.17,0.216-0.258,0.32c-0.03,0.036-0.061,0.069-0.09,0.104c-0.123,0.145-0.247,0.29-0.375,0.43
			c-0.106,0.119-0.218,0.235-0.328,0.351c-0.056,0.058-0.111,0.118-0.168,0.176c-0.08,0.082-0.161,0.163-0.243,0.243
			c-0.15,0.147-0.3,0.292-0.455,0.434c-0.052,0.048-0.106,0.094-0.159,0.142c-0.139,0.124-0.28,0.247-0.423,0.366
			c-0.055,0.046-0.109,0.092-0.163,0.137c-0.177,0.145-0.357,0.286-0.539,0.424c-0.059,0.045-0.118,0.089-0.178,0.133
			c-0.19,0.139-0.38,0.276-0.575,0.408c-0.033,0.023-0.069,0.045-0.103,0.068c-0.161,0.108-0.325,0.212-0.489,0.314
			c-0.109,0.067-0.217,0.133-0.326,0.198c-0.08,0.048-0.162,0.092-0.242,0.139c-0.14,0.081-0.281,0.162-0.424,0.238
			c-0.151,0.081-0.305,0.158-0.458,0.235c-0.156,0.078-0.312,0.153-0.471,0.226c-0.141,0.065-0.283,0.131-0.425,0.193
			c-0.105,0.045-0.211,0.089-0.317,0.132c-0.144,0.058-0.288,0.116-0.434,0.171c-0.103,0.04-0.208,0.078-0.312,0.116
			c-0.159,0.057-0.319,0.11-0.48,0.163c-0.092,0.03-0.184,0.062-0.277,0.09c-0.249,0.077-0.5,0.149-0.753,0.214
			c-0.049,0.013-0.099,0.023-0.148,0.035c-0.213,0.053-0.426,0.103-0.642,0.149C35.086,48.942,34.997,48.958,34.908,48.976"/>
	</g>
	<g>
		<g>
			<polygon class="st0" points="34.999,39.211 35.322,39.653 36.236,39.357 35.672,40.135 35.821,40.341 36.236,40.915 
				35.322,40.617 34.755,41.397 34.755,40.434 33.84,40.135 34.755,39.837 34.755,38.876 			"/>
			<path class="st0" d="M29.989,42.123c-0.55-0.484-0.898-1.196-0.898-1.988c0-0.51,0.144-0.99,0.399-1.396
				c0.271-0.44,0.67-0.795,1.147-1.012c0.1-0.049,0.205-0.088,0.315-0.122c0.249-0.078,0.516-0.12,0.79-0.12
				c0.941,0,1.77,0.494,2.24,1.235c-0.389-0.433-0.951-0.704-1.577-0.704c-0.315,0-0.611,0.068-0.881,0.19
				c-0.098,0.044-0.193,0.098-0.281,0.157c-0.435,0.284-0.76,0.727-0.895,1.245c-0.044,0.169-0.066,0.345-0.066,0.528
				c0,0.477,0.156,0.918,0.423,1.272c0.389,0.513,1.003,0.848,1.697,0.848h0.003c0.139,0,0.274-0.012,0.406-0.039
				c0.46-0.088,0.868-0.328,1.172-0.666c-0.238,0.377-0.568,0.688-0.957,0.903c-0.345,0.193-0.733,0.308-1.149,0.328
				c-0.044,0.005-0.091,0.005-0.135,0.005C31.07,42.786,30.456,42.537,29.989,42.123"/>
		</g>
		<path class="st0" d="M31.69,33.575c-1.128-1.709-2.546-3.18-4.216-4.376c2.963-3.274,7.182-5.149,11.597-5.149
			c2.757,0,5.454,0.727,7.831,2.106c-0.457-0.038-0.898-0.057-1.337-0.057C39.957,26.098,34.783,28.89,31.69,33.575z M26.811,28.751
			c-1.631-1.053-3.404-1.803-5.276-2.232c2.917-4.304,7.743-6.868,12.942-6.868c4.446,0,9.1,2.072,12.068,5.378
			c-2.191-1.038-5.057-1.773-7.474-1.773C34.395,23.256,29.928,25.259,26.811,28.751z M20.692,26.353
			c-0.967-0.169-1.934-0.255-2.878-0.255c-0.555,0-1.132,0.031-1.717,0.091c2.208-6.769,8.453-11.305,15.593-11.305
			c6.231,0,11.915,3.542,14.68,9.084c-3.097-3.257-7.391-5.111-11.893-5.111c-5.519,0-10.637,2.75-13.692,7.356L20.692,26.353z"/>
	</g>
</g>
</svg>
